<?xml version="1.0" encoding="utf-8"?>
<!-- Generator: Adobe Illustrator 22.1.0, SVG Export Plug-In . SVG Version: 6.00 Build 0)  -->
<svg version="1.1" id="Layer_1" xmlns="http://www.w3.org/2000/svg" xmlns:xlink="http://www.w3.org/1999/xlink" x="0px" y="0px"
	 viewBox="0 0 238 117" style="enable-background:new 0 0 238 117;" xml:space="preserve">
<style type="text/css">
	.st0{fill:#4FBC8D;}
	.st1{fill:#FEFEFE;}
</style>
<title>logo</title>
<desc>Created with Sketch.</desc>
<g id="logo_shape" transform="translate(0.000000, 1.000000)">
	<polygon id="Fill-1" class="st0" points="30,70 34,70 34,52 30,52 	"/>
	<polygon id="Fill-2" class="st0" points="69,63 73,63 73,45 69,45 	"/>
	<polygon id="Fill-3" class="st0" points="33.1,44 33.1,44 31,47.7 46.9,57 46.9,57 49,53.3 	"/>
	<polygon id="Fill-4" class="st0" points="57.1,58 57.1,58 55,61.7 70.9,71 70.9,71 73,67.3 	"/>
	<polygon id="Fill-5" class="st1" points="50,6 52,6 52,0 50,0 	"/>
	<polygon id="Fill-6" class="st1" points="40,5.9 45.8,9 47,7.1 41.2,4 	"/>
	<polygon id="Fill-7" class="st1" points="61.8,4 56,7.1 57.2,9 63,5.9 	"/>
	<polygon id="Fill-8" class="st1" points="31,40 35,40 35,28 31,28 	"/>
	<polygon id="Fill-9" class="st1" points="15,38.7 25.5,45 27,42.3 16.5,36 	"/>
	<polygon id="Fill-10" class="st1" points="16.5,56 27,49.7 25.5,47 15,53.3 	"/>
	<polygon id="Fill-11" class="st1" points="50,29 54,29 54,17 50,17 	"/>
	<polygon id="Fill-12" class="st1" points="36,26.7 46.5,33 48,30.3 37.5,24 	"/>
	<polygon id="Fill-13" class="st1" points="37.5,45 48,38.7 46.5,36 36,42.3 	"/>
	<polygon id="Fill-14" class="st1" points="50,52 54,52 54,40 50,40 	"/>
	<polygon id="Fill-15" class="st1" points="68,42.3 57.5,36 56,38.7 66.5,45 	"/>
	<polygon id="Fill-16" class="st1" points="66.5,24 56,30.3 57.5,33 68,26.7 	"/>
	<polygon id="Fill-17" class="st1" points="50,75 54,75 54,63 50,63 	"/>
	<polygon id="Fill-18" class="st1" points="36,72.7 46.5,79 48,76.3 37.5,70 	"/>
	<polygon id="Fill-19" class="st1" points="37.5,90 48,83.7 46.5,81 36,87.3 	"/>
	<polygon id="Fill-20" class="st1" points="50,98 54,98 54,86 50,86 	"/>
	<polygon id="Fill-21" class="st1" points="68,87.3 57.5,81 56,83.7 66.5,90 	"/>
	<polygon id="Fill-22" class="st1" points="66.5,70 56,76.3 57.5,79 68,72.7 	"/>
	<polygon id="Fill-23" class="st1" points="70,87 74,87 74,75 70,75 	"/>
	<polygon id="Fill-24" class="st1" points="87,76.3 76.5,70 75,72.7 85.5,79 	"/>
	<polygon id="Fill-25" class="st1" points="85.5,58 75,64.3 76.5,67 87,60.7 	"/>
	<polygon id="Fill-26" class="st1" points="15,60.7 25.5,67 27,64.3 16.5,58 	"/>
	<polygon id="Fill-27" class="st1" points="31,87 35,87 35,75 31,75 	"/>
	<polygon id="Fill-28" class="st1" points="70,40 74,40 74,28 70,28 	"/>
	<polygon id="Fill-29" class="st1" points="57.5,56 68,49.7 66.5,47 56,53.3 	"/>
	<polygon id="Fill-30" class="st1" points="87,53.3 76.5,47 75,49.7 85.5,56 	"/>
	<polygon id="Fill-31" class="st1" points="85.5,36 75,42.3 76.5,45 87,38.7 	"/>
	<polygon id="Fill-32" class="st1" points="46.5,58 36,64.3 37.5,67 48,60.7 	"/>
	<polygon id="Fill-33" class="st1" points="25.5,70 15,76.3 16.5,79 27,72.7 	"/>
	<polygon id="Fill-34" class="st1" points="31,17 33,17 33,11 31,11 	"/>
	<polygon id="Fill-35" class="st1" points="21,17.9 26.8,21 28,19.1 22.2,16 	"/>
	<polygon id="Fill-36" class="st1" points="48,14 46.8,12 36,18 37.2,20 	"/>
	<polygon id="Fill-37" class="st1" points="11,29 13,29 13,23 11,23 	"/>
	<polygon id="Fill-38" class="st1" points="1,29.9 6.8,33 8,31.1 2.2,28 	"/>
	<polygon id="Fill-39" class="st1" points="1,39.1 2.2,41 8,37.9 6.8,36 	"/>
	<polygon id="Fill-40" class="st1" points="27,27 25.8,25 15,31 16.2,33 	"/>
	<polygon id="Fill-41" class="st1" points="11,52 13,52 13,40 11,40 	"/>
	<polygon id="Fill-42" class="st1" points="1,52.9 6.8,56 8,54.1 2.2,51 	"/>
	<polygon id="Fill-43" class="st1" points="1,62.1 2.2,64 8,60.9 6.8,59 	"/>
	<polygon id="Fill-44" class="st1" points="11,75 13,75 13,63 11,63 	"/>
	<polygon id="Fill-45" class="st1" points="1,75.9 6.8,79 8,77.1 2.2,74 	"/>
	<polygon id="Fill-46" class="st1" points="1,85.1 2.2,87 8,83.9 6.8,82 	"/>
	<polygon id="Fill-47" class="st1" points="11,92 13,92 13,86 11,86 	"/>
	<polygon id="Fill-48" class="st1" points="16.2,82 15,84 25.8,90 27,88 	"/>
	<polygon id="Fill-49" class="st1" points="22.2,99 28,95.9 26.8,94 21,97.1 	"/>
	<polygon id="Fill-50" class="st1" points="31,104 33,104 33,98 31,98 	"/>
	<polygon id="Fill-51" class="st1" points="37.2,94 36,96 46.8,102 48,100 	"/>
	<polygon id="Fill-52" class="st1" points="41.2,110 47,106.9 45.8,105 40,108.1 	"/>
	<polygon id="Fill-53" class="st1" points="50,115 52,115 52,109 50,109 	"/>
	<polygon id="Fill-54" class="st1" points="63,108.1 57.2,105 56,106.9 61.8,110 	"/>
	<polygon id="Fill-55" class="st1" points="68,96 66.8,94 56,100 57.2,102 	"/>
	<polygon id="Fill-56" class="st1" points="70,104 72,104 72,98 70,98 	"/>
	<polygon id="Fill-57" class="st1" points="82,97.1 76.2,94 75,95.9 80.8,99 	"/>
	<polygon id="Fill-58" class="st1" points="87,84 85.8,82 75,88 76.2,90 	"/>
	<polygon id="Fill-59" class="st1" points="90,92 92,92 92,86 90,86 	"/>
	<polygon id="Fill-60" class="st1" points="102,85.1 96.2,82 95,83.9 100.8,87 	"/>
	<polygon id="Fill-61" class="st1" points="100.8,74 95,77.1 96.2,79 102,75.9 	"/>
	<polygon id="Fill-62" class="st1" points="90,75 92,75 92,63 90,63 	"/>
	<polygon id="Fill-63" class="st1" points="102,62.1 96.2,59 95,60.9 100.8,64 	"/>
	<polygon id="Fill-64" class="st1" points="100.8,51 95,54.1 96.2,56 102,52.9 	"/>
	<polygon id="Fill-65" class="st1" points="90,29 92,29 92,23 90,23 	"/>
	<polygon id="Fill-66" class="st1" points="90,52 92,52 92,40 90,40 	"/>
	<polygon id="Fill-67" class="st1" points="102,39.1 96.2,36 95,37.9 100.8,41 	"/>
	<polygon id="Fill-68" class="st1" points="100.8,28 95,31.1 96.2,33 102,29.9 	"/>
	<polygon id="Fill-69" class="st1" points="70,17 72,17 72,11 70,11 	"/>
	<polygon id="Fill-70" class="st1" points="57.2,12 56,14 66.8,20 68,18 	"/>
	<polygon id="Fill-71" class="st1" points="76.2,25 75,27 85.8,33 87,31 	"/>
	<polygon id="Fill-72" class="st1" points="80.8,16 75,19.1 76.2,21 82,17.9 	"/>
</g>
<g>
	<polygon id="Fill-73" class="st1" points="132.3,31.2 132.3,46.6 117.7,30.2 117.7,54.5 121,54.5 121,39.1 135.6,55.4 135.6,31.2 	
		"/>
	<polygon id="Fill-74" class="st1" points="144.2,51.1 144.2,42.9 153,42.9 153,39.9 144.2,39.9 144.2,33.9 153.9,33.9 153.9,30.9 
		140.9,30.9 140.9,54.1 154.2,54.1 154.2,51.1 	"/>
	<path id="Fill-75" class="st1" d="M169.1,37.6c0,1.3-0.4,2.3-1.1,3c-0.7,0.7-1.6,1-2.8,1h-3.4v-7.9h3.6c0.7,0,1.6,0.1,2.4,0.7
		C168.6,35.1,169.1,36.2,169.1,37.6z M167.5,44.3c3-0.9,4.9-3.5,4.9-6.7c0-4-2.9-6.9-7.1-6.9h-6.9v23h3.4v-9.2h2.1l6.2,9.1l0,0h4
		L167.5,44.3z"/>
	<polygon id="Fill-77" class="st1" points="191.7,30.8 185.4,46.4 178.5,30.8 178.5,30.8 174.8,30.8 185.4,54.5 195.4,30.8 	"/>
	<path id="Fill-79" class="st1" d="M215.1,42.2c0,2.6-1,5.1-2.7,6.8c-1.4,1.4-3.1,2-5,2c-3.8-0.1-7.7-3.1-7.7-8.8
		c0-2.2,0.8-4.4,2.1-6c1.4-1.7,3.4-2.7,5.5-2.7C212.1,33.5,215.1,38,215.1,42.2 M207.4,30.6c-6.3,0-11,5-11,11.7
		c0,6.8,4.6,11.7,11,11.7c6.4,0,11-4.9,11-11.7C218.4,35.6,213.7,30.6,207.4,30.6"/>
	<path id="Fill-81" class="st1" d="M229.4,39.9c-1.3-0.5-4.2-1.7-4.2-3.3c0-1.9,1.3-3.1,3.5-3.1c1.3,0,2.6,0.7,3.3,1.5l0.1,0.1
		l2.5-1.9l-0.1-0.1c-1.4-1.6-3.6-2.5-5.8-2.5c-5.2,0-7,3.2-7,6.1c0,3.2,3,4.9,5.9,6.1c3.6,1.5,4.6,2.5,4.6,4.4c0,1.1-0.3,2-1,2.7
		c-0.8,0.8-1.9,1.2-3.3,1.2c-0.6,0-1.5-0.1-2.3-0.6c-0.9-0.5-1.5-1.3-2-2.3l0-0.1l-3.2,0.7l0,0.1c1.7,4.3,5.1,5.2,7.7,5.2
		c4.6,0,7.7-2.7,7.7-6.8C235.8,43.8,233.8,41.6,229.4,39.9"/>
</g>
<g id="Clip-86">
</g>
<g>
	<path class="st0" d="M125.1,65.9h2.7l7.5,17.4h-3.5l-1.6-4h-7.6l-1.6,4h-3.5L125.1,65.9z M129,76.7l-2.7-7.1l-2.7,7.1H129z"/>
	<path class="st0" d="M140.4,71.5v1.6h0.1c0.1-0.2,0.3-0.5,0.6-0.7c0.2-0.2,0.5-0.5,0.9-0.6c0.3-0.2,0.7-0.3,1.2-0.5
		s0.9-0.2,1.5-0.2c0.8,0,1.6,0.2,2.3,0.5c0.7,0.3,1.3,0.8,1.8,1.3s0.9,1.2,1.2,2c0.3,0.8,0.4,1.6,0.4,2.4s-0.1,1.7-0.4,2.4
		c-0.3,0.8-0.7,1.4-1.2,2s-1.1,1-1.8,1.4c-0.7,0.3-1.5,0.5-2.4,0.5c-0.8,0-1.6-0.2-2.3-0.5c-0.7-0.3-1.2-0.8-1.6-1.4h0v7.5h-3V71.5
		H140.4z M147.3,77.3c0-0.5-0.1-0.9-0.2-1.4c-0.1-0.5-0.3-0.9-0.6-1.2c-0.3-0.4-0.6-0.7-1.1-0.9c-0.4-0.2-0.9-0.3-1.5-0.3
		c-0.5,0-1,0.1-1.5,0.3c-0.4,0.2-0.8,0.5-1.1,0.9c-0.3,0.4-0.5,0.8-0.7,1.2c-0.2,0.5-0.2,0.9-0.2,1.4s0.1,0.9,0.2,1.4
		c0.2,0.5,0.4,0.9,0.7,1.2c0.3,0.4,0.7,0.7,1.1,0.9c0.4,0.2,0.9,0.3,1.5,0.3c0.6,0,1.1-0.1,1.5-0.3c0.4-0.2,0.8-0.5,1.1-0.9
		c0.3-0.4,0.5-0.8,0.6-1.2C147.2,78.3,147.3,77.8,147.3,77.3z"/>
	<path class="st0" d="M156.7,71.5v1.6h0.1c0.1-0.2,0.3-0.5,0.6-0.7c0.2-0.2,0.5-0.5,0.9-0.6c0.3-0.2,0.7-0.3,1.2-0.5
		s0.9-0.2,1.5-0.2c0.8,0,1.6,0.2,2.3,0.5c0.7,0.3,1.3,0.8,1.8,1.3s0.9,1.2,1.2,2c0.3,0.8,0.4,1.6,0.4,2.4s-0.1,1.7-0.4,2.4
		c-0.3,0.8-0.7,1.4-1.2,2s-1.1,1-1.8,1.4c-0.7,0.3-1.5,0.5-2.4,0.5c-0.8,0-1.6-0.2-2.3-0.5c-0.7-0.3-1.2-0.8-1.6-1.4h0v7.5h-3V71.5
		H156.7z M163.6,77.3c0-0.5-0.1-0.9-0.2-1.4c-0.1-0.5-0.3-0.9-0.6-1.2c-0.3-0.4-0.6-0.7-1.1-0.9c-0.4-0.2-0.9-0.3-1.5-0.3
		c-0.5,0-1,0.1-1.5,0.3c-0.4,0.2-0.8,0.5-1.1,0.9c-0.3,0.4-0.5,0.8-0.7,1.2c-0.2,0.5-0.2,0.9-0.2,1.4s0.1,0.9,0.2,1.4
		c0.2,0.5,0.4,0.9,0.7,1.2c0.3,0.4,0.7,0.7,1.1,0.9c0.4,0.2,0.9,0.3,1.5,0.3c0.6,0,1.1-0.1,1.5-0.3c0.4-0.2,0.8-0.5,1.1-0.9
		c0.3-0.4,0.5-0.8,0.6-1.2C163.5,78.3,163.6,77.8,163.6,77.3z"/>
	<path class="st0" d="M182.9,70c-0.5-0.6-1.1-1.1-1.8-1.4c-0.7-0.3-1.5-0.4-2.2-0.4c-0.9,0-1.7,0.2-2.5,0.5
		c-0.7,0.3-1.4,0.8-1.9,1.4c-0.5,0.6-0.9,1.2-1.2,2s-0.4,1.6-0.4,2.5c0,1,0.1,1.8,0.4,2.6c0.3,0.8,0.7,1.5,1.2,2
		c0.5,0.6,1.1,1,1.9,1.3c0.7,0.3,1.5,0.5,2.4,0.5c0.9,0,1.8-0.2,2.5-0.6s1.3-0.9,1.7-1.5l2.5,1.7c-0.8,1-1.7,1.7-2.8,2.2
		c-1.1,0.5-2.4,0.8-3.9,0.8c-1.4,0-2.6-0.2-3.8-0.7c-1.1-0.5-2.1-1.1-2.9-1.9c-0.8-0.8-1.5-1.8-1.9-2.9s-0.7-2.4-0.7-3.7
		c0-1.4,0.2-2.7,0.7-3.8s1.1-2.1,2-2.9c0.8-0.8,1.8-1.4,3-1.8c1.1-0.4,2.4-0.6,3.7-0.6c0.6,0,1.1,0.1,1.7,0.2
		c0.6,0.1,1.2,0.3,1.7,0.5c0.6,0.2,1.1,0.5,1.6,0.8c0.5,0.3,0.9,0.7,1.3,1.2L182.9,70z"/>
	<path class="st0" d="M194.6,71.1c0.8,0,1.4,0.1,2,0.4c0.5,0.3,1,0.6,1.4,1.1c0.4,0.4,0.6,1,0.8,1.5s0.2,1.2,0.2,1.8v7.4h-3v-6.5
		c0-0.3,0-0.7-0.1-1.1c0-0.4-0.2-0.7-0.3-1c-0.2-0.3-0.4-0.6-0.7-0.8c-0.3-0.2-0.7-0.3-1.1-0.3s-0.9,0.1-1.2,0.3
		c-0.3,0.2-0.6,0.4-0.9,0.7c-0.2,0.3-0.4,0.6-0.5,1c-0.1,0.4-0.2,0.8-0.2,1.2v6.4h-3V64.7h3v8.4h0c0.1-0.2,0.3-0.5,0.5-0.7
		c0.2-0.2,0.5-0.5,0.8-0.6c0.3-0.2,0.6-0.3,1-0.5C193.7,71.2,194.2,71.1,194.6,71.1z"/>
	<path class="st0" d="M210.5,81.8L210.5,81.8c-0.4,0.5-0.8,1-1.5,1.3c-0.7,0.3-1.4,0.5-2.2,0.5c-0.5,0-1-0.1-1.5-0.2
		c-0.5-0.1-1-0.3-1.4-0.6c-0.4-0.3-0.8-0.7-1.1-1.1c-0.3-0.5-0.4-1-0.4-1.7c0-0.9,0.2-1.6,0.8-2.1c0.5-0.5,1.1-0.9,1.9-1.2
		c0.8-0.3,1.7-0.5,2.6-0.6c1-0.1,1.9-0.1,2.8-0.1v-0.3c0-0.7-0.3-1.3-0.8-1.6s-1.2-0.5-1.9-0.5c-0.6,0-1.2,0.1-1.8,0.4
		c-0.6,0.3-1,0.6-1.4,1L203,73c0.7-0.6,1.4-1.1,2.3-1.4c0.9-0.3,1.8-0.5,2.7-0.5c1,0,1.9,0.1,2.6,0.4c0.7,0.3,1.2,0.7,1.6,1.2
		s0.7,1,0.8,1.6c0.2,0.6,0.2,1.2,0.2,1.8v7.2h-2.8V81.8z M210.4,77.9h-0.7c-0.5,0-1,0-1.5,0.1c-0.5,0-1,0.1-1.5,0.3
		c-0.4,0.1-0.8,0.3-1.1,0.6c-0.3,0.3-0.4,0.6-0.4,1c0,0.3,0.1,0.5,0.2,0.7s0.3,0.3,0.5,0.5c0.2,0.1,0.4,0.2,0.7,0.2s0.5,0.1,0.7,0.1
		c1,0,1.8-0.3,2.3-0.8c0.5-0.5,0.8-1.3,0.8-2.2V77.9z"/>
	<path class="st0" d="M217,67.5c0-0.5,0.2-0.9,0.5-1.2s0.8-0.5,1.3-0.5s1,0.2,1.4,0.5s0.6,0.8,0.6,1.3s-0.2,0.9-0.6,1.3
		s-0.8,0.5-1.4,0.5s-1-0.2-1.3-0.5S217,68,217,67.5z M217.4,71.5h3v11.8h-3V71.5z"/>
	<path class="st0" d="M224.7,71.5h2.8v1.9h0c0.3-0.6,0.7-1.1,1.4-1.6s1.4-0.7,2.3-0.7c0.8,0,1.4,0.1,2,0.4c0.5,0.3,1,0.6,1.4,1.1
		c0.4,0.4,0.6,1,0.8,1.5c0.2,0.6,0.2,1.2,0.2,1.8v7.4h-3v-6.5c0-0.3,0-0.7-0.1-1.1c0-0.4-0.2-0.7-0.3-1s-0.4-0.6-0.7-0.8
		c-0.3-0.2-0.7-0.3-1.1-0.3s-0.9,0.1-1.2,0.3c-0.3,0.2-0.6,0.4-0.8,0.7c-0.2,0.3-0.4,0.6-0.5,1c-0.1,0.4-0.2,0.8-0.2,1.2v6.5h-3
		V71.5z"/>
</g>
</svg>
