<?xml version="1.0" encoding="UTF-8"?>
<svg width="123px" height="123px" viewBox="0 0 123 123" version="1.1" xmlns="http://www.w3.org/2000/svg" xmlns:xlink="http://www.w3.org/1999/xlink">
    <!-- Generator: Sketch 49.3 (51167) - http://www.bohemiancoding.com/sketch -->
    <title>联系我们_社交</title>
    <desc>Created with Sketch.</desc>
    <defs></defs>
    <g id="联系我们_社交" stroke="none" stroke-width="1" fill="none" fill-rule="evenodd">
        <g id="Group-4" transform="translate(35.000000, 30.000000)" fill-rule="nonzero">
            <g id="noun_1242028_cc">
                <path d="M48.8059009,46.9609164 C49.1770651,47.0822102 49.5482294,47.0822102 49.857533,47.0822102 C50.5998615,47.0822102 51.2803293,46.9002695 51.9607972,46.5363881 C52.9505686,45.990566 53.6310364,45.0808625 53.8784792,44.0498652 C54.1259221,43.0188679 54.0022007,41.8665768 53.4454543,40.9568733 C52.8887078,39.9865229 51.9607972,39.319407 50.9091651,39.0768194 L50.8473044,21.1253369 C51.1566079,21.0040431 51.4659115,20.8827493 51.775215,20.7614555 C53.7547578,19.6091644 54.4352256,17.1226415 53.2598721,15.1819407 C52.0845186,13.2412399 49.5482294,12.574124 47.5686866,13.7264151 C47.2593831,13.9083558 47.0119402,14.0902965 46.7644974,14.3328841 L30.8044338,5.23584906 C31.1137373,4.20485175 30.9900159,3.05256065 30.4332695,2.02156334 C29.257916,0.0808625337 26.7216268,-0.586253369 24.742084,0.566037736 C23.0099841,1.53638814 22.2676556,3.53773585 22.8862627,5.35714286 L7.1736419,14.2722372 C6.6168955,13.7264151 5.93642767,13.3018868 5.19409913,13.0592992 C4.14246703,12.7560647 2.96711351,12.9380054 2.03920283,13.4838275 C1.04943144,14.0296496 0.368963614,14.9393531 0.121520767,15.9703504 C-0.125922079,17.0013477 -0.00220065604,18.1536388 0.554545749,19.0633423 C1.11129215,20.0336927 2.03920283,20.7008086 3.09083493,20.9433962 L3.15269564,39.0768194 C2.78153137,39.1981132 2.47222781,39.319407 2.10106354,39.5013477 C0.121520767,40.6536388 -0.558947061,43.1401617 0.616406461,45.0808625 C1.42059571,46.4150943 2.78153137,47.1428571 4.20432774,47.1428571 C4.94665628,47.1428571 5.62712411,46.9609164 6.30759194,46.597035 C6.6168955,46.4150943 6.92619905,46.1725067 7.1736419,45.9299191 L23.1955662,54.9056604 C22.9481234,55.8760108 23.0718448,56.967655 23.6285912,57.9380054 C24.4327805,59.2722372 25.7937161,60 27.2165125,60 C27.958841,60 28.6393089,59.8180593 29.3197767,59.4541779 C30.9900159,58.4838275 31.7323444,56.5431267 31.2374588,54.8450135 L46.9500795,45.8692722 C47.4449652,46.4150943 48.0635723,46.7789757 48.8059009,46.9609164 Z M51.8989365,41.8665768 C52.5175436,42.958221 52.1463793,44.3530997 51.0328865,44.9595687 C50.4761401,45.2628032 49.857533,45.3234501 49.3007866,45.2021563 C48.6821795,45.0202156 48.1872938,44.6563342 47.8779902,44.171159 C47.5686866,43.6253369 47.5068259,43.0188679 47.6305474,42.4730458 C47.8161295,41.8665768 48.1872938,41.3814016 48.6821795,41.0781671 C49.0533437,40.8962264 49.424508,40.7749326 49.857533,40.7749326 C50.6617222,40.7749326 51.4659115,41.138814 51.8989365,41.8665768 Z M47.5068259,16.5768194 C47.6924081,15.9703504 48.0635723,15.4851752 48.558458,15.1819407 C49.6719508,14.5754717 51.0947472,14.9393531 51.7133543,16.0309973 C52.3319614,17.1226415 51.9607972,18.5175202 50.8473044,19.1239892 C49.7338115,19.7304582 48.3110152,19.3665768 47.6924081,18.2749326 C47.3831045,17.7897574 47.3212438,17.1832884 47.5068259,16.5768194 Z M49.0533437,21.1859838 L49.1152044,39.0161725 C48.6821795,39.0768194 48.2491545,39.2587601 47.8161295,39.5013477 C47.5068259,39.6832884 47.2593831,39.8652291 47.0119402,40.1078167 L36.9905049,34.5283019 C37.6091121,33.1940701 37.9802763,31.6778976 37.9802763,30.1010782 C37.9802763,28.3423181 37.5472513,26.7048518 36.8049228,25.2493261 L46.640776,19.9730458 C47.2593831,20.5795148 48.125433,21.0040431 49.0533437,21.1859838 Z M29.8765231,6.81266846 L45.774726,15.7277628 C45.7128653,15.8490566 45.7128653,15.9703504 45.6510046,16.0916442 C45.4654224,16.819407 45.4654224,17.6078167 45.7128653,18.3355795 L35.7532907,23.6725067 C33.8974694,21.2466307 30.9900159,19.6698113 27.6495375,19.5485175 L27.6495375,8.08625337 C28.0207017,8.02560647 28.4537267,7.84366577 28.824891,7.66172507 C29.257916,7.41913747 29.6290802,7.17654987 29.8765231,6.81266846 Z M33.0314194,36.6509434 C31.4849016,37.9851752 29.4434981,38.7735849 27.2165125,38.7735849 C24.9895269,38.7735849 23.0099841,37.9851752 21.4016056,36.6509434 C21.4016056,36.6509434 21.4016056,36.6509434 21.4016056,36.6509434 L21.4016056,35.074124 C21.4016056,33.4973046 23.1955662,32.2843666 25.4225519,32.2843666 L29.0104731,32.2843666 C31.2374588,32.2843666 33.0314194,33.5579515 33.0314194,35.074124 L33.0314194,36.6509434 C33.0314194,36.6509434 33.0314194,36.6509434 33.0314194,36.6509434 Z M29.0723338,30.4649596 L25.4844126,30.4649596 C22.4532377,30.4649596 19.9788092,32.2843666 19.6695057,34.5283019 C18.8653164,33.1940701 18.3704307,31.6778976 18.3704307,30.0404313 C18.3704307,25.2493261 22.3295163,21.3072776 27.2783732,21.3072776 C32.2272301,21.3072776 36.124455,25.2493261 36.124455,30.0404313 C36.124455,31.3746631 35.8151514,32.7088949 35.258405,33.8005391 C35.0728229,33.861186 34.8872407,33.9824798 34.7635193,34.1037736 C34.2067729,32.041779 31.8560659,30.4649596 29.0723338,30.4649596 Z M25.608134,2.14285714 C26.7216268,1.53638814 28.1444232,1.90026954 28.7630303,2.99191375 C29.3816374,4.08355795 29.0104731,5.47843666 27.8969803,6.08490566 C26.7834875,6.69137466 25.3606911,6.32749326 24.742084,5.23584906 C24.1234769,4.14420485 24.4946412,2.74932615 25.608134,2.14285714 Z M23.7523126,6.93396226 C24.309059,7.54043127 25.0513876,7.90431267 25.8555768,8.08625337 L25.8555768,19.6091644 C22.7006805,20.0336927 19.9788092,21.7924528 18.30857,24.2789757 L18.4322914,24.0363881 L8.03969186,18.2749326 C8.03969186,18.2142857 8.10155258,18.2142857 8.10155258,18.1536388 C8.28713471,17.425876 8.28713471,16.6374663 8.03969186,15.9097035 L23.7523126,6.93396226 Z M2.03920283,18.2142857 C1.42059571,17.1226415 1.79175998,15.7277628 2.90525279,15.1212938 C3.4619992,14.8180593 4.08060632,14.7574124 4.63735272,14.8787062 C5.25595984,15.0606469 5.75084553,15.4245283 6.06014909,15.9097035 C6.36945265,16.4555256 6.43131336,17.0619946 6.30759194,17.6078167 C6.1220098,18.2142857 5.75084553,18.6994609 5.25595984,19.0026954 C4.14246703,19.6698113 2.71967066,19.3059299 2.03920283,18.2142857 Z M6.06014909,44.4137466 C5.87456696,44.7169811 5.62712411,44.8989218 5.31782055,45.0808625 C4.20432774,45.6873315 2.78153137,45.3234501 2.16292425,44.2318059 C1.54431714,43.1401617 1.91548141,41.745283 3.02897422,41.138814 C3.40013849,40.9568733 3.77130276,40.8355795 4.20432774,40.8355795 C4.38990987,40.8355795 4.57549201,40.8355795 4.82293486,40.8962264 C5.44154197,41.0781671 5.93642767,41.4420485 6.24573123,41.9272237 C6.6168955,42.7762803 6.55503478,43.6859838 6.06014909,44.4137466 Z M5.19409913,39.1981132 C5.13223841,39.1981132 5.00851699,39.1374663 4.94665628,39.1374663 L4.88479557,21.06469 C5.31782055,21.0040431 5.75084553,20.8221024 6.18387051,20.5795148 C6.55503478,20.3975741 6.86433834,20.0943396 7.1736419,19.7911051 L17.5662415,25.5525606 L17.6899629,25.309973 C16.9476343,26.7048518 16.5764701,28.2816712 16.5764701,29.9797844 C16.5764701,31.5566038 16.9476343,33.0727763 17.6281022,34.467655 L7.1736419,40.3504043 C6.67875621,39.8045822 5.99828838,39.3800539 5.19409913,39.1981132 Z M23.9378948,53.3894879 L8.10155258,44.4743935 C8.41085613,43.6859838 8.41085613,42.7762803 8.10155258,41.9272237 L18.4941521,36.1051213 C20.2262521,38.5309973 22.9481234,40.1684636 26.1030197,40.532345 L26.1648804,52.0552561 C25.7937161,52.115903 25.4225519,52.2978437 25.0513876,52.4797844 C24.6183626,52.6617251 24.2471983,53.0256065 23.9378948,53.3894879 Z M28.3300053,57.9380054 C27.2165125,58.5444744 25.7937161,58.180593 25.175109,57.0889488 C24.5565019,55.9973046 24.9276662,54.6024259 26.041159,53.9959569 C27.1546518,53.3894879 28.5774481,53.7533693 29.1960553,54.8450135 C29.8146624,55.9366577 29.4434981,57.3315364 28.3300053,57.9380054 Z M45.8984474,44.3530997 L30.2476874,53.2681941 C29.6290802,52.6010782 28.824891,52.1765499 27.958841,51.9946092 L27.8969803,40.532345 C31.2374588,40.3504043 34.2067729,38.5916442 36.0007336,36.0444744 L45.8984474,41.5633423 C45.8365867,41.6846361 45.8365867,41.8059299 45.774726,41.9272237 C45.5891439,42.7762803 45.6510046,43.6253369 45.8984474,44.3530997 Z" id="Shape" fill="#FFFFFF"></path>
                <path d="M27.5,23 C25.5491803,23 24,24.5491803 24,26.5 C24,28.4508197 25.5491803,30 27.5,30 C29.4508197,30 31,28.4508197 31,26.5 C31,24.5491803 29.4508197,23 27.5,23 Z" id="Shape" stroke="#FFFFFF"></path>
            </g>
        </g>
    </g>
</svg>