<?xml version="1.0" encoding="UTF-8"?>
<svg width="3360px" height="258px" viewBox="0 0 3360 258" version="1.1" xmlns="http://www.w3.org/2000/svg" xmlns:xlink="http://www.w3.org/1999/xlink">
    <!-- Generator: Sketch 49.3 (51167) - http://www.bohemiancoding.com/sketch -->
    <title>宽屏_波浪_bg</title>
    <desc>Created with Sketch.</desc>
    <defs></defs>
    <g id="宽屏_波浪_bg" stroke="none" stroke-width="1" fill="none" fill-rule="evenodd">
        <path d="" id="Path-4" stroke="#979797"></path>
        <path d="" id="Path-6" stroke="#979797"></path>
        <path d="M1,259.885854 L1,101.399944 C525.647532,70.2000185 886.239114,70.2000185 1082.77475,101.399944 C1377.5782,148.199833 1575.00042,189.495213 1788.40421,189.495213 C2001.808,189.495213 2554.37203,84.9061951 2770.24531,84.9061951 C2914.16083,84.9061951 3111.4213,101.184436 3362.02674,133.740918 L3362.02674,259.885854 L1,259.885854 Z" id="Path-5" fill="#28315F"></path>
        <path d="M-2,60.4552802 C197.848723,32 412.499147,24.88618 641.95127,39.11382 C986.129455,60.4552802 1212.38602,100.679507 1364.3389,116.65399 C1516.29178,132.628474 1771.40153,75.2450466 2069.62599,51.8928601 C2268.4423,36.3247358 2697.9003,44.1087979 3358,75.2450466 L3358,260.157396 L-2,253.701299 L-2,60.4552802 Z" id="Path-7" fill-opacity="0.4" fill="#273265"></path>
        <path d="" id="Path-8" stroke="#979797"></path>
        <path d="M2.54504265,130.439797 C113.07019,98.6782518 294.146322,88.09107 545.773439,98.6782518 C923.214116,114.559025 966.451209,150.488799 1206.40221,162.330338 C1446.35322,174.171877 1549.87603,136.110811 1814.66387,129 C2079.45172,121.889189 2318.92786,176.407944 2636.81819,176.407944 C2954.70852,176.407944 3201.0561,66.9167064 3361.64184,98.6782518" id="Path-9" stroke="#3F4B84" stroke-width="3"></path>
    </g>
</svg>