<?xml version="1.0" encoding="UTF-8"?>
<svg width="54px" height="54px" viewBox="0 0 54 54" version="1.1" xmlns="http://www.w3.org/2000/svg" xmlns:xlink="http://www.w3.org/1999/xlink">
    <!-- Generator: Sketch 49.3 (51167) - http://www.bohemiancoding.com/sketch -->
    <title>wechat</title>
    <desc>Created with Sketch.</desc>
    <defs></defs>
    <g id="wechat" stroke="none" stroke-width="1" fill="none" fill-rule="evenodd">
        <g id="05_contact" transform="translate(11.000000, 13.000000)" fill="#FFFFFF" fill-rule="nonzero">
            <g id="wechat">
                <g id="Group">
                    <path d="M33,18.6428571 C33,21.2922143 31.42425,23.6246429 29.01525,25.1409286 L30.9375,29 L25.3790625,26.6075 C24.514875,26.796 23.623875,26.9285714 22.6875,26.9285714 C16.9929375,26.9285714 12.375,23.2186429 12.375,18.6428571 C12.375,14.0670714 16.9929375,10.3571429 22.6875,10.3571429 C28.3820625,10.3571429 33,14.0670714 33,18.6428571 Z M19.59375,18.125 C20.4480655,18.125 21.140625,17.4294424 21.140625,16.5714286 C21.140625,15.7134148 20.4480655,15.0178571 19.59375,15.0178571 C18.7394345,15.0178571 18.046875,15.7134148 18.046875,16.5714286 C18.046875,17.4294424 18.7394345,18.125 19.59375,18.125 Z M25.78125,18.125 C26.6355655,18.125 27.328125,17.4294424 27.328125,16.5714286 C27.328125,15.7134148 26.6355655,15.0178571 25.78125,15.0178571 C24.9269345,15.0178571 24.234375,15.7134148 24.234375,16.5714286 C24.234375,17.4294424 24.9269345,18.125 25.78125,18.125 Z" id="wechat_shape_2"></path>
                    <path d="M12.375,0 C18.414,0 23.4361875,3.62292857 24.5251875,8.41207143 C23.9229375,8.3375 23.3124375,8.28571429 22.6875,8.28571429 C15.8626875,8.28571429 10.3125,12.9319286 10.3125,18.6428571 C10.3125,19.3077857 10.395,19.9561429 10.539375,20.5879286 C9.4813125,20.4574286 8.4913125,20.1777857 7.5384375,19.8380714 L3.09375,21.75 L4.7251875,18.473 C1.852125,16.5797143 0,13.6548571 0,10.3571429 C0,4.63792857 5.539875,0 12.375,0 Z M8.25,7.76785714 C9.10431547,7.76785714 9.796875,7.07229952 9.796875,6.21428571 C9.796875,5.35627191 9.10431547,4.66071429 8.25,4.66071429 C7.39568453,4.66071429 6.703125,5.35627191 6.703125,6.21428571 C6.703125,7.07229952 7.39568453,7.76785714 8.25,7.76785714 Z M16.5,7.76785714 C17.3543155,7.76785714 18.046875,7.07229952 18.046875,6.21428571 C18.046875,5.35627191 17.3543155,4.66071429 16.5,4.66071429 C15.6456845,4.66071429 14.953125,5.35627191 14.953125,6.21428571 C14.953125,7.07229952 15.6456845,7.76785714 16.5,7.76785714 Z" id="wechat_shape_1"></path>
                </g>
            </g>
        </g>
    </g>
</svg>