<?xml version="1.0" encoding="UTF-8"?>
<svg width="123px" height="123px" viewBox="0 0 123 123" version="1.1" xmlns="http://www.w3.org/2000/svg" xmlns:xlink="http://www.w3.org/1999/xlink">
    <!-- Generator: Sketch 49.3 (51167) - http://www.bohemiancoding.com/sketch -->
    <title>联系我们_游戏</title>
    <desc>Created with Sketch.</desc>
    <defs></defs>
    <g id="联系我们_游戏" stroke="none" stroke-width="1" fill="none" fill-rule="evenodd">
        <g id="noun_1209941_cc" transform="translate(35.000000, 34.000000)" fill="#FFFFFF" fill-rule="nonzero">
            <g id="Group">
                <path d="M41.4752604,52.5724589 C37.6031291,52.5724589 33.9736125,50.5948792 31.8515422,47.3697205 L21.1473796,47.3697205 C19.0253093,50.5948791 15.3957927,52.5724589 11.5236614,52.5724589 C5.1693115,52.5724589 0,47.4031473 0,41.0487976 C0,34.6944478 5.1693115,29.524058 11.5236613,29.524058 L41.4752604,29.524058 C47.8296102,29.524058 53,34.6944478 53,41.0487976 C53,47.4031473 47.8296102,52.5724589 41.4752604,52.5724589 Z M19.8965658,45.1613871 L33.102356,45.1613871 L33.4215291,45.7113139 C35.0864055,48.581716 38.172465,50.3641256 41.4752604,50.3641256 C46.6122234,50.3641256 50.7916667,46.1857605 50.7916667,41.0487977 C50.7916667,35.9118348 46.6122233,31.7323914 41.4752604,31.7323914 L11.5236613,31.7323914 C6.38669842,31.7323913 2.20833333,35.9118347 2.20833333,41.0487976 C2.20833333,46.1857604 6.38669842,50.3641255 11.5236613,50.3641255 C14.8264566,50.3641255 17.9125162,48.5817158 19.5773925,45.7113138 L19.8965658,45.1613871 Z" id="Shape"></path>
                <path d="M10.8540446,46.0897929 C10.2437337,46.0897929 9.7498779,45.5959371 9.7498779,44.9856262 L9.7498779,37.1108907 C9.7498779,36.5005798 10.2437337,36.0067241 10.8540446,36.0067241 C11.4643555,36.0067241 11.9582112,36.5005798 11.9582112,37.1108907 L11.9582112,44.9856262 C11.9582112,45.5959371 11.4643555,46.0897929 10.8540446,46.0897929 Z" id="Shape"></path>
                <path d="M14.7919515,42.151886 L6.91721594,42.151886 C6.30690504,42.151886 5.81304927,41.6580303 5.81304927,41.0477194 C5.81304927,40.4374085 6.30690504,39.9435527 6.91721594,39.9435527 L14.7919514,39.9435527 C15.4022623,39.9435527 15.8961181,40.4374085 15.8961181,41.0477194 C15.8961181,41.6580303 15.4022624,42.151886 14.7919515,42.151886 Z" id="Shape"></path>
                <path d="M46.0827841,42.151886 L45.5307007,42.151886 C44.9203898,42.151886 44.4265341,41.6580303 44.4265341,41.0477194 C44.4265341,40.4374085 44.9203898,39.9435527 45.5307007,39.9435527 L46.0827841,39.9435527 C46.693095,39.9435527 47.1869507,40.4374085 47.1869507,41.0477194 C47.1869507,41.6580303 46.6930948,42.151886 46.0827841,42.151886 Z" id="Shape"></path>
                <path d="M37.5988159,42.151886 L37.0467326,42.151886 C36.4364217,42.151886 35.9425659,41.6580303 35.9425659,41.0477194 C35.9425659,40.4374085 36.4364217,39.9435527 37.0467326,39.9435527 L37.5988159,39.9435527 C38.2091268,39.9435527 38.7029826,40.4374085 38.7029826,41.0477194 C38.7029826,41.6580303 38.2091268,42.151886 37.5988159,42.151886 Z" id="Shape"></path>
                <path d="M41.8408,38.2873027 L41.2887166,38.2873027 C40.6784057,38.2873027 40.18455,37.7934469 40.18455,37.183136 C40.18455,36.5728251 40.6784057,36.0789694 41.2887166,36.0789694 L41.8408,36.0789694 C42.4511109,36.0789694 42.9449666,36.5728251 42.9449666,37.183136 C42.9449666,37.7934469 42.4511109,38.2873027 41.8408,38.2873027 Z" id="Shape"></path>
                <path d="M41.8408,46.0164694 L41.2887166,46.0164694 C40.6784057,46.0164694 40.18455,45.5226136 40.18455,44.9123027 C40.18455,44.3019918 40.6784057,43.808136 41.2887166,43.808136 L41.8408,43.808136 C42.4511109,43.808136 42.9449666,44.3019918 42.9449666,44.9123027 C42.9449666,45.5226136 42.4511109,46.0164694 41.8408,46.0164694 Z" id="Shape"></path>
                <path d="M31.1215414,31.7323913 L21.8773804,31.7323913 L21.8773804,28.040334 C21.8773804,26.2137145 23.3632609,24.727834 25.1898804,24.727834 L27.8090414,24.727834 C29.6356609,24.727834 31.1215414,26.2137145 31.1215414,28.040334 L31.1215414,31.7323913 Z M24.0857137,29.524058 L28.913208,29.524058 L28.913208,28.040334 C28.913208,27.4311015 28.4182739,26.9361674 27.8090414,26.9361674 L25.1898804,26.9361674 C24.5806478,26.9361674 24.0857137,27.4311015 24.0857137,28.040334 L24.0857137,29.524058 Z" id="Shape"></path>
                <path d="M26.5,26.9361674 C25.8896891,26.9361674 25.3958333,26.4423116 25.3958333,25.8320007 L25.3958333,21.2875569 C25.3958333,20.6788635 24.9008992,20.1833902 24.2916667,20.1833902 L10.4938965,20.1833902 C7.56311038,20.1833902 5.17793791,17.7987568 5.17793791,14.8674316 C5.17793791,11.9366454 7.56311049,9.55201212 10.4938965,9.55201212 L43.5283203,9.55201212 C45.4347331,9.55201212 46.9863891,8.00089513 46.9863891,6.09394331 C46.9863891,4.1869915 45.4347331,2.6358744 43.5283203,2.6358744 L1.10416667,2.6358744 C0.493855767,2.6358744 0,2.14147946 0,1.53170773 C0,0.921935994 0.493855767,0.427541063 1.10416667,0.427541063 L43.5283203,0.427541063 C46.6531982,0.427541063 49.1947225,2.96960446 49.1947225,6.0939432 C49.1947225,9.21828194 46.6531982,11.7603453 43.5283203,11.7603453 L10.4938965,11.7603453 C8.7804973,11.7603453 7.38627124,13.1540322 7.38627124,14.8674315 C7.38627124,16.5808307 8.7804973,17.9750568 10.4938965,17.9750568 L24.2916667,17.9750568 C26.1182862,17.9750568 27.6041667,19.4609373 27.6041667,21.2875568 L27.6041667,25.8320006 C27.6041667,26.4423116 27.1103109,26.9361674 26.5,26.9361674 Z" id="Shape"></path>
            </g>
        </g>
    </g>
</svg>