<?xml version="1.0" encoding="UTF-8"?>
<svg width="123px" height="123px" viewBox="0 0 123 123" version="1.1" xmlns="http://www.w3.org/2000/svg" xmlns:xlink="http://www.w3.org/1999/xlink">
    <!-- Generator: Sketch 49.3 (51167) - http://www.bohemiancoding.com/sketch -->
    <title>联系我们_学校</title>
    <desc>Created with Sketch.</desc>
    <defs></defs>
    <g id="联系我们_学校" stroke="none" stroke-width="1" fill="none" fill-rule="evenodd">
        <g id="Group-4" transform="translate(32.000000, 32.000000)" fill="#FFFFFF" fill-rule="nonzero">
            <g id="Group-3">
                <g id="noun_1035073_cc">
                    <path d="M29.8541681,0.0127525992 C29.5437521,0.0822556096 29.3256825,0.361323848 29.3333398,0.679267449 L29.3333398,9.61473216 L17.6667865,16.0924234 C17.4586688,16.2125573 17.3313193,16.4353704 17.3334565,16.6756238 L17.3334565,22.091057 L0.437787351,28.0272049 C0.168096731,28.1257856 -0.00816704274,28.3859278 0.000291603275,28.6728911 L0.000291603275,55.3334851 C0.000328414854,55.7015759 0.298780784,55.9999632 0.66695179,56 L59.3330482,56 C59.7012192,55.9999632 59.9996716,55.7015759 59.9997084,55.3334851 L59.9997084,28.6728911 C60.008167,28.3859278 59.8319033,28.1257856 59.5622126,28.0272049 L42.6665435,22.091057 L42.6665435,16.6756238 C42.6686807,16.4353704 42.5413312,16.2125573 42.3332135,16.0924234 L30.6666602,9.61473216 L30.6666602,6.76121546 C33.1213863,8.0460628 35.6298373,8.59168518 38.2915861,7.26110159 C38.5158265,7.15209949 38.6604926,6.92711232 38.6665824,6.6779011 L38.6665824,2.01229715 C38.6681695,1.78176445 38.5504981,1.56677721 38.3554374,1.44383099 C38.1603768,1.32088478 37.9156212,1.3074353 37.7082584,1.40826807 C36.5339458,1.99529436 35.3984949,2.00777151 34.1666262,1.69986831 C32.9347575,1.39196511 31.6249842,0.741753216 30.2916638,0.0752383664 C30.1571782,0.00528872578 30.0028645,-0.0167512824 29.8541681,0.0127525992 Z M30.6666602,1.65821114 C31.7046614,2.16437584 32.7311241,2.71575692 33.8332961,2.99124084 C34.9631004,3.27362985 36.1495442,3.19596754 37.3332621,2.84544071 L37.3332621,6.19884355 C35.0533282,7.18041997 33.0686202,6.65972524 30.7083264,5.30321422 C30.6950585,5.28872137 30.6811562,5.27482208 30.6666602,5.26155704 L30.6666602,1.65821114 Z M30,10.7811331 L41.3332232,17.071367 L41.3332232,54.6669703 L34.6666213,54.6669703 L34.6666213,42.669703 C34.6665845,42.3016123 34.3681321,42.003225 33.9999611,42.0031881 L26.0000389,42.0031881 C25.9584646,41.9992746 25.9166144,41.9992746 25.8750401,42.0031881 C25.5563219,42.0639887 25.3276611,42.3453559 25.3333787,42.669703 L25.3333787,54.6669703 L18.6667768,54.6669703 L18.6667768,17.071367 L30,10.7811331 Z M30,16.009109 C27.0624066,16.009109 24.6667185,18.4042768 24.6667185,21.3412278 C24.6667185,24.2781788 27.0624066,26.6733466 30,26.6733466 C32.9375934,26.6733466 35.3332815,24.2781788 35.3332815,21.3412278 C35.3332815,18.4042768 32.9375934,16.009109 30,16.009109 Z M30,17.3421387 C32.2170151,17.3421387 33.9999611,19.1246993 33.9999611,21.3412278 C33.9999611,23.5577563 32.2170151,25.3403169 30,25.3403169 C27.7829855,25.3403169 26.0000389,23.5577563 26.0000389,21.3412278 C26.0000389,19.1246993 27.7829855,17.3421387 30,17.3421387 Z M17.3334565,23.5074011 L17.3334565,54.6669703 L1.33361198,54.6669703 L1.33361198,29.1519487 L17.3334565,23.5074011 Z M42.6665435,23.5074011 L58.666388,29.1519487 L58.666388,54.6669703 L42.6665435,54.6669703 L42.6665435,23.5074011 Z M23.2083993,30.0059208 C22.8896811,30.0667214 22.6610204,30.3480886 22.6667379,30.6724357 L22.6667379,37.3375842 C22.6667748,37.7056749 22.9652271,38.0040622 23.3333981,38.004099 L36.6666019,38.004099 C37.0347729,38.0040622 37.3332252,37.7056749 37.3332621,37.3375842 L37.3332621,30.6724357 C37.3332252,30.304345 37.0347729,30.0059577 36.6666019,30.0059208 L23.3333981,30.0059208 C23.2918238,30.0020073 23.2499737,30.0020073 23.2083993,30.0059208 Z M5.8752345,31.3389505 C5.55651627,31.3997511 5.32785555,31.6811183 5.3335731,32.0054654 L5.3335731,37.3375842 C5.33360991,37.7056749 5.63206228,38.0040622 6.00023328,38.004099 L12.6668351,38.004099 C13.0350062,38.0040622 13.3334585,37.7056749 13.3334953,37.3375842 L13.3334953,32.0054654 C13.3334585,31.6373747 13.0350062,31.3389874 12.6668351,31.3389505 L6.00023328,31.3389505 C5.95865896,31.335037 5.91680882,31.335037 5.8752345,31.3389505 Z M24.0000583,31.3389505 L35.9999417,31.3389505 L35.9999417,36.6710693 L24.0000583,36.6710693 L24.0000583,31.3389505 Z M47.2081661,31.3389505 C46.8894478,31.3997511 46.6607871,31.6811183 46.6665047,32.0054654 L46.6665047,37.3375842 C46.6665415,37.7056749 46.9649938,38.0040622 47.3331649,38.004099 L53.9997667,38.004099 C54.3679377,38.0040622 54.6663901,37.7056749 54.6664269,37.3375842 L54.6664269,32.0054654 C54.6663901,31.6373747 54.3679377,31.3389874 53.9997667,31.3389505 L47.3331649,31.3389505 C47.2915905,31.335037 47.2497404,31.335037 47.2081661,31.3389505 Z M6.66689347,32.6719802 L12.000175,32.6719802 L12.000175,36.6710693 L6.66689347,36.6710693 L6.66689347,32.6719802 Z M47.999825,32.6719802 L53.3331065,32.6719802 L53.3331065,36.6710693 L47.999825,36.6710693 L47.999825,32.6719802 Z M5.8752345,42.0031881 C5.55651627,42.0639887 5.32785555,42.3453559 5.3335731,42.669703 L5.3335731,48.0018218 C5.33360991,48.3699125 5.63206228,48.6682998 6.00023328,48.6683366 L12.6668351,48.6683366 C13.0350062,48.6682998 13.3334585,48.3699125 13.3334953,48.0018218 L13.3334953,42.669703 C13.3334585,42.3016123 13.0350062,42.003225 12.6668351,42.0031881 L6.00023328,42.0031881 C5.95865896,41.9992746 5.91680882,41.9992746 5.8752345,42.0031881 Z M47.2081661,42.0031881 C46.8894478,42.0639887 46.6607871,42.3453559 46.6665047,42.669703 L46.6665047,48.0018218 C46.6665415,48.3699125 46.9649938,48.6682998 47.3331649,48.6683366 L53.9997667,48.6683366 C54.3679377,48.6682998 54.6663901,48.3699125 54.6664269,48.0018218 L54.6664269,42.669703 C54.6663901,42.3016123 54.3679377,42.003225 53.9997667,42.0031881 L47.3331649,42.0031881 C47.2915905,41.9992746 47.2497404,41.9992746 47.2081661,42.0031881 Z M6.66689347,43.3362178 L12.000175,43.3362178 L12.000175,47.3353069 L6.66689347,47.3353069 L6.66689347,43.3362178 Z M26.6666991,43.3362178 L33.3333009,43.3362178 L33.3333009,54.6669703 L26.6666991,54.6669703 L26.6666991,43.3362178 Z M47.999825,43.3362178 L53.3331065,43.3362178 L53.3331065,47.3353069 L47.999825,47.3353069 L47.999825,43.3362178 Z" id="Shape"></path>
                </g>
            </g>
        </g>
    </g>
</svg>